<svg width="52" height="52" viewBox="0 0 52 52" fill="none" xmlns="http://www.w3.org/2000/svg">
<path d="M25.9308 0C31.0595 0 36.0729 1.52487 40.3373 4.38179C44.6016 7.23871 47.9252 11.2993 49.8878 16.0502C51.8505 20.8011 52.364 26.0288 51.3634 31.0723C50.3629 36.1158 47.8932 40.7486 44.2667 44.3848C40.6402 48.0209 36.0198 50.4972 30.9897 51.5004C25.9596 52.5036 20.7458 51.9887 16.0075 50.0209C11.2693 48.053 7.21945 44.7205 4.37014 40.4448C1.52082 36.1691 0 31.1423 0 26C0 19.1044 2.73199 12.4912 7.59497 7.61522C12.4579 2.73928 19.0536 0 25.9308 0Z" fill="#404447"/>
<path d="M29.8333 19.75H17.952C16.7127 19.75 15.708 20.7574 15.708 22V29.109C15.708 30.3516 16.7127 31.359 17.952 31.359H29.8333C31.0727 31.359 32.0774 30.3516 32.0774 29.109V22C32.0774 20.7574 31.0727 19.75 29.8333 19.75Z" stroke="white" stroke-width="1.5"/>
<path d="M33.9761 24.6479V27.0979L37.1855 30.288V20.6709L33.9761 24.6479Z" stroke="white" stroke-width="1.5" stroke-linejoin="round"/>
</svg>
