<svg width="53" height="52" viewBox="0 0 53 52" fill="none" xmlns="http://www.w3.org/2000/svg">
<path d="M26.3591 0C31.4877 0 36.5012 1.52487 40.7655 4.38179C45.0298 7.23871 48.3534 11.2993 50.3161 16.0502C52.2787 20.8011 52.7922 26.0288 51.7917 31.0723C50.7911 36.1158 48.3215 40.7486 44.695 44.3848C41.0685 48.0209 36.448 50.4972 31.4179 51.5004C26.3878 52.5036 21.174 51.9887 16.4358 50.0209C11.6975 48.053 7.64768 44.7205 4.79836 40.4448C1.94904 36.1691 0.428223 31.1423 0.428223 26C0.428223 19.1044 3.16022 12.4912 8.02319 7.61522C12.8862 2.73928 19.4818 0 26.3591 0Z" fill="#404447"/>
<path d="M35.8707 20.316C35.6187 20.0552 35.316 19.8489 34.9813 19.71C34.6466 19.571 34.2871 19.5023 33.9249 19.508H31.5183L30.9698 18.042C30.8178 17.67 30.5575 17.3525 30.2228 17.131C29.8999 16.8889 29.509 16.7552 29.1058 16.749H23.6074C23.2059 16.7566 22.8168 16.8906 22.4954 17.132C22.1607 17.3535 21.9004 17.671 21.7484 18.043L21.1999 19.509H18.7923C18.4301 19.5033 18.0706 19.572 17.7359 19.711C17.4012 19.8499 17.0985 20.0562 16.8465 20.317C16.5865 20.5697 16.3808 20.873 16.2422 21.2084C16.1036 21.5438 16.035 21.904 16.0406 22.267V31.923C16.0349 32.2862 16.1034 32.6467 16.242 32.9822C16.3806 33.3178 16.5863 33.6213 16.8465 33.874C17.0985 34.1349 17.4012 34.3411 17.7359 34.4801C18.0706 34.6191 18.4301 34.6878 18.7923 34.682H33.9249C34.6546 34.6818 35.3544 34.391 35.8703 33.8737C36.3863 33.3563 36.6763 32.6547 36.6766 31.923V22.267C36.6823 21.9039 36.6138 21.5434 36.4752 21.2078C36.3366 20.8723 36.1309 20.5688 35.8707 20.316V20.316Z" stroke="white" stroke-width="1.5"/>
<path d="M26.3592 23.9881C25.6416 23.9868 24.9458 24.235 24.3903 24.6906C23.8348 25.1461 23.4542 25.7807 23.3131 26.4862C23.1721 27.1917 23.2795 27.9244 23.617 28.5593C23.9545 29.1943 24.5012 29.6922 25.1639 29.9682C25.8266 30.2443 26.5642 30.2813 27.2511 30.073C27.938 29.8647 28.5315 29.424 28.9305 28.8259C29.3296 28.2279 29.5094 27.5097 29.4393 26.7936C29.3693 26.0775 29.0537 25.408 28.5464 24.8991C28.2632 24.6055 27.9231 24.3732 27.5469 24.2165C27.1707 24.0598 26.7665 23.9821 26.3592 23.9881V23.9881Z" stroke="white" stroke-width="1.5"/>
</svg>
