<svg width="52" height="52" viewBox="0 0 52 52" fill="none" xmlns="http://www.w3.org/2000/svg">
<path d="M25.9308 0C31.0595 0 36.0729 1.52487 40.3373 4.38179C44.6016 7.23871 47.9252 11.2993 49.8878 16.0502C51.8505 20.8011 52.364 26.0288 51.3634 31.0723C50.3629 36.1158 47.8932 40.7486 44.2667 44.3848C40.6402 48.0209 36.0198 50.4972 30.9897 51.5004C25.9596 52.5036 20.7458 51.9887 16.0075 50.0209C11.2693 48.053 7.21945 44.7205 4.37014 40.4448C1.52082 36.1691 0 31.1423 0 26C0 19.1044 2.73199 12.4912 7.59497 7.61522C12.4579 2.73928 19.0536 0 25.9308 0V0Z" fill="#404447"/>
<path d="M34 16.75H18C16.2051 16.75 14.75 18.2051 14.75 20V32C14.75 33.7949 16.2051 35.25 18 35.25H34C35.7949 35.25 37.25 33.7949 37.25 32V20C37.25 18.2051 35.7949 16.75 34 16.75Z" stroke="white" stroke-width="1.5"/>
<path d="M25.73 31H27.7739V21.1357H25.7231L23.1733 22.9062V24.7656L25.689 23.0293H25.73V31Z" fill="white"/>
</svg>
