<svg width="18" height="14" viewBox="0 0 18 14" fill="none" xmlns="http://www.w3.org/2000/svg">
<path d="M5.24984 14C3.65324 14.0008 2.25847 12.921 1.85932 11.3751H0V9.62513H1.86019C2.31486 7.8642 4.04248 6.74494 5.83544 7.04971C7.6284 7.35447 8.88918 8.98169 8.73648 10.794C8.58379 12.6062 7.06852 13.9995 5.24984 14ZM5.24984 8.75016C4.29384 8.75113 3.51554 9.51913 3.50184 10.475C3.48815 11.4309 4.24411 12.2209 5.19969 12.2493C6.15527 12.2776 6.95676 11.5339 6.99978 10.5789V10.9288V10.5001C6.99978 9.53364 6.21631 8.75016 5.24984 8.75016ZM17.4995 11.3751H9.6247V9.62513H17.4995V11.3751ZM9.6247 7.00022C8.02843 7.00062 6.63413 5.92088 6.23506 4.3753H0V2.62535H6.23506C6.68973 0.86442 8.41734 -0.254843 10.2103 0.0499219C12.0033 0.354686 13.264 1.98191 13.1113 3.79417C12.9587 5.60643 11.4434 6.99975 9.6247 7.00022ZM9.6247 1.75038C8.6687 1.75135 7.89041 2.51935 7.87671 3.47525C7.86301 4.43115 8.61898 5.22114 9.57456 5.2495C10.5301 5.27786 11.3316 4.5341 11.3746 3.57907V3.92906V3.50032C11.3746 2.53385 10.5912 1.75038 9.6247 1.75038ZM17.4995 4.3753H13.9996V2.62535H17.4995V4.3753Z" fill="white"/>
</svg>
