<svg width="260" height="260" viewBox="0 0 260 260" fill="none" xmlns="http://www.w3.org/2000/svg">
<g filter="url(#filter0_d_284_282)">
<circle cx="130" cy="122" r="90" fill="url(#paint0_radial_284_282)"/>
</g>
<circle r="30" transform="matrix(1 0 0 -1 130 122)" fill="white"/>
<circle r="8" transform="matrix(1 0 0 -1 130 122)" fill="#FD7B38"/>
<path d="M204.412 122L198.412 116L197 117.412L201.592 122.003L197 126.588L198.412 128L204.412 122Z" fill="white"/>
<path d="M56.0001 122L62.0006 128L63.4121 126.588L58.8201 121.997L63.4121 117.412L62.0006 116L56.0001 122Z" fill="white"/>
<path d="M130 48.0001L124 54.0006L125.412 55.4121L130.003 50.8201L134.588 55.4121L136 54.0006L130 48.0001Z" fill="white"/>
<path d="M130 196.412L136 190.412L134.588 189L129.997 193.592L125.412 189L124 190.412L130 196.412Z" fill="white"/>
<defs>
<filter id="filter0_d_284_282" x="0" y="0" width="260" height="260" filterUnits="userSpaceOnUse" color-interpolation-filters="sRGB">
<feFlood flood-opacity="0" result="BackgroundImageFix"/>
<feColorMatrix in="SourceAlpha" type="matrix" values="0 0 0 0 0 0 0 0 0 0 0 0 0 0 0 0 0 0 127 0" result="hardAlpha"/>
<feOffset dy="8"/>
<feGaussianBlur stdDeviation="20"/>
<feColorMatrix type="matrix" values="0 0 0 0 0 0 0 0 0 0 0 0 0 0 0 0 0 0 0.05 0"/>
<feBlend mode="normal" in2="BackgroundImageFix" result="effect1_dropShadow_284_282"/>
<feBlend mode="normal" in="SourceGraphic" in2="effect1_dropShadow_284_282" result="shape"/>
</filter>
<radialGradient id="paint0_radial_284_282" cx="0" cy="0" r="1" gradientUnits="userSpaceOnUse" gradientTransform="translate(130 122) rotate(90) scale(90)">
<stop stop-color="#404447"/>
<stop offset="0.4875" stop-color="#555A5E"/>
<stop offset="1" stop-color="#404447"/>
</radialGradient>
</defs>
</svg>
