<svg width="24" height="20" viewBox="0 0 24 20" fill="none" xmlns="http://www.w3.org/2000/svg">
<path d="M20 0.75H4C2.20507 0.75 0.75 2.20507 0.75 4V16C0.75 17.7949 2.20507 19.25 4 19.25H20C21.7949 19.25 23.25 17.7949 23.25 16V4C23.25 2.20507 21.7949 0.75 20 0.75Z" stroke="white" stroke-width="1.5"/>
<path d="M11.709 14V6.9541H10.2344V9.81543H7.06055V6.9541H5.58594V14H7.06055V11.0312H10.2344V14H11.709Z" fill="white"/>
<path d="M12.8809 6.9541V14H15.5713C17.6855 14 18.9307 12.6865 18.9307 10.4502C18.9307 8.21387 17.6855 6.9541 15.5713 6.9541H12.8809ZM14.3555 8.16992H15.3955C16.6943 8.16992 17.4268 8.98047 17.4268 10.4551C17.4268 11.9785 16.7139 12.7793 15.3955 12.7793H14.3555V8.16992Z" fill="white"/>
</svg>
