<svg width="52" height="52" viewBox="0 0 52 52" fill="none" xmlns="http://www.w3.org/2000/svg">
<path d="M25.9308 0C31.0595 0 36.0729 1.52487 40.3373 4.38179C44.6016 7.23871 47.9252 11.2993 49.8878 16.0502C51.8505 20.8011 52.364 26.0288 51.3634 31.0723C50.3629 36.1158 47.8932 40.7486 44.2667 44.3848C40.6402 48.0209 36.0198 50.4972 30.9897 51.5004C25.9596 52.5036 20.7458 51.9887 16.0075 50.0209C11.2693 48.053 7.21945 44.7205 4.37014 40.4448C1.52082 36.1691 0 31.1423 0 26C0 19.1044 2.73199 12.4912 7.59497 7.61522C12.4579 2.73928 19.0536 0 25.9308 0Z" fill="#403634"/>
<path d="M25.9228 23.4312C27.424 23.4312 28.6432 24.6517 28.6432 26.1602C28.6432 27.6686 27.424 28.8892 25.9228 28.8892C24.4216 28.8892 23.2024 27.6686 23.2024 26.1602C23.2024 24.6517 24.4216 23.4312 25.9228 23.4312Z" stroke="#FD7B38"/>
<path d="M28.3953 26.1602C28.3953 24.791 27.2883 23.6812 25.9229 23.6812C24.5574 23.6812 23.4504 24.791 23.4504 26.1602C23.4504 27.5293 24.5574 28.6392 25.9229 28.6392C27.2883 28.6392 28.3953 27.5293 28.3953 26.1602Z" stroke="#FD7B38" stroke-width="1.5"/>
<path d="M26.52 13.7812L26.5199 13.7811C26.4764 13.704 26.4134 13.6402 26.3374 13.5958C26.2614 13.5514 26.1752 13.5281 26.0875 13.5281C25.9998 13.5281 25.9136 13.5514 25.8376 13.5958C25.7617 13.6402 25.6986 13.704 25.6551 13.781C25.6551 13.781 25.6551 13.781 25.6551 13.7811L22.9085 18.6458L22.9084 18.646C22.8654 18.7221 22.843 18.8084 22.8435 18.896C22.844 18.9837 22.8675 19.0696 22.9114 19.1452C22.9554 19.2208 23.0182 19.2834 23.0935 19.3268C23.1689 19.3702 23.2541 19.393 23.3408 19.393L26.52 13.7812ZM26.52 13.7812L29.2726 18.646M26.52 13.7812L29.2726 18.646M29.2726 18.646C29.2726 18.6461 29.2726 18.6461 29.2727 18.6462M29.2726 18.646L29.2727 18.6462M29.2727 18.6462C29.3156 18.7223 29.338 18.8084 29.3375 18.896C29.3369 18.9837 29.3135 19.0696 29.2696 19.1452C29.2256 19.2208 29.1628 19.2834 29.0875 19.3268C29.0121 19.3702 28.9269 19.393 28.8402 19.393C28.8402 19.393 28.8402 19.393 28.8401 19.393H23.3408L29.2727 18.6462Z" stroke="#FD7B38"/>
<path d="M26.5239 14.7965L26.0886 14.0263L25.6534 14.7965L23.7613 18.1443L23.3397 18.8903H24.1966H27.9807H28.8376L28.416 18.1443L26.5239 14.7965ZM25.6562 13.7813L25.6562 13.7813C25.7521 13.6117 25.917 13.5283 26.0886 13.5283C26.2603 13.5283 26.4252 13.6117 26.5211 13.7813L29.2689 18.6433C29.4584 18.9786 29.2155 19.3903 28.8364 19.3903H23.3408C22.9618 19.3903 22.7189 18.9786 22.9084 18.6433L25.6562 13.7813Z" fill="#FD7B38" stroke="#FD7B38"/>
<path d="M25.658 38.3709L25.6581 38.371C25.7016 38.4481 25.7646 38.5119 25.8406 38.5563C25.9165 38.6007 26.0028 38.624 26.0905 38.624C26.1782 38.624 26.2644 38.6007 26.3404 38.5563L26.5791 38.9649L26.3404 38.5563C26.4163 38.512 26.4792 38.4482 26.5228 38.3713C26.5228 38.3712 26.5228 38.3712 26.5228 38.3712C26.5228 38.3711 26.5229 38.3711 26.5229 38.371L29.2694 33.5063L29.2696 33.5061C29.3126 33.43 29.335 33.3437 29.3345 33.2561C29.3339 33.1684 29.3105 33.0825 29.2665 33.0069C29.2226 32.9313 29.1598 32.8687 29.0844 32.8253C29.0091 32.7819 28.9239 32.7591 28.8372 32.7591L25.658 38.3709ZM25.658 38.3709L22.9054 33.5061M25.658 38.3709L22.9054 33.5061M22.9054 33.5061C22.8624 33.43 22.84 33.3437 22.8405 33.2561C22.8411 33.1684 22.8645 33.0825 22.9084 33.0069C22.9524 32.9313 23.0152 32.8687 23.0905 32.8253C23.1659 32.7819 23.2511 32.7591 23.3378 32.7591C23.3378 32.7591 23.3378 32.7591 23.3378 32.7591H28.8371L22.9054 33.5061Z" stroke="#FD7B38"/>
<path d="M25.654 37.3556L26.0893 38.1258L26.5246 37.3556L28.4167 34.0078L28.8383 33.2618H27.9814H24.1973H23.3404L23.762 34.0078L25.654 37.3556ZM26.5217 38.3708L26.5217 38.3708C26.4259 38.5404 26.261 38.6238 26.0893 38.6238C25.9177 38.6238 25.7528 38.5404 25.6569 38.3708L22.9091 33.5088C22.7196 33.1735 22.9625 32.7618 23.3415 32.7618H28.8371C29.2162 32.7618 29.4591 33.1735 29.2695 33.5088L26.5217 38.3708Z" fill="#FD7B38" stroke="#FD7B38"/>
<path d="M13.7462 25.8917L13.746 25.8918C13.6696 25.9353 13.6058 25.9984 13.5613 26.0749C13.5169 26.1514 13.4934 26.2384 13.4934 26.3271C13.4934 26.4158 13.5169 26.5028 13.5613 26.5793C13.6057 26.6557 13.6695 26.7188 13.7459 26.7623C13.7459 26.7623 13.746 26.7623 13.746 26.7624L18.5979 29.5162L18.5981 29.5164C18.6737 29.5593 18.7591 29.5816 18.8458 29.581C18.9325 29.5805 19.0176 29.5572 19.0927 29.5134C19.1677 29.4695 19.2302 29.4065 19.2737 29.3307C19.3172 29.2548 19.3401 29.1688 19.3401 29.0811L13.7462 25.8917ZM13.7462 25.8917L18.5981 23.1318M13.7462 25.8917L18.5981 23.1318M18.5981 23.1318C18.5981 23.1318 18.5982 23.1318 18.5983 23.1317M18.5981 23.1318L18.5983 23.1317M18.5983 23.1317C18.6738 23.0889 18.7591 23.0666 18.8458 23.0671C18.9325 23.0677 19.0176 23.091 19.0927 23.1348C19.1677 23.1787 19.2302 23.2416 19.2737 23.3175C19.3172 23.3934 19.3401 23.4794 19.3401 23.5671C19.3401 23.5671 19.3401 23.5671 19.3401 23.5671V29.0811L18.5983 23.1317Z" stroke="#FD7B38"/>
<path d="M14.7555 25.8912L13.9903 26.3259L14.7555 26.7607L18.0944 28.6578L18.8414 29.0822V28.223V24.4288V23.5697L18.0944 23.9941L14.7555 25.8912ZM13.7463 26.7612L13.7463 26.7612C13.5778 26.6655 13.4937 26.4998 13.4937 26.3259C13.4937 26.1521 13.5778 25.9864 13.7463 25.8906L18.5954 23.1355C18.9249 22.9483 19.3374 23.1856 19.3374 23.5708V29.0811C19.3374 29.4662 18.9249 29.7036 18.5954 29.5163L13.7463 26.7612Z" fill="#FD7B38" stroke="#FD7B38"/>
<path d="M38.2672 26.7594L38.2674 26.7593C38.3439 26.7158 38.4077 26.6527 38.4521 26.5763C38.4965 26.4998 38.52 26.4127 38.52 26.324C38.52 26.2353 38.4965 26.1483 38.4521 26.0718C38.4077 25.9954 38.344 25.9323 38.2676 25.8889C38.2676 25.8889 38.2676 25.8888 38.2675 25.8888C38.2675 25.8888 38.2674 25.8888 38.2674 25.8887L33.4156 23.1349L33.4154 23.1348C33.3398 23.0918 33.2544 23.0696 33.1677 23.0701C33.081 23.0706 32.9959 23.0939 32.9208 23.1378C32.8457 23.1816 32.7832 23.2446 32.7398 23.3204C32.6963 23.3963 32.6733 23.4824 32.6733 23.57L38.2672 26.7594ZM38.2672 26.7594L33.4154 29.5193L38.2672 26.7594ZM32.6685 29.948L32.9208 29.5163C32.9959 29.5601 33.081 29.5835 33.1677 29.584C33.2543 29.5845 33.3396 29.5623 33.4151 29.5194L32.6685 29.948ZM32.6685 29.948L32.9208 29.5163C32.8457 29.4724 32.7832 29.4095 32.7398 29.3336C32.6963 29.2578 32.6733 29.1717 32.6733 29.084C32.6733 29.084 32.6733 29.084 32.6733 29.084V23.5701L32.6685 29.948Z" stroke="#FD7B38"/>
<path d="M37.258 26.7599L38.0231 26.3252L37.258 25.8905L33.9191 23.9934L33.172 23.5689V24.4281V28.2223V29.0815L33.9191 28.657L37.258 26.7599ZM38.2671 26.7605L38.5141 27.1952L38.2671 26.7605L33.4181 29.5156C33.0885 29.7029 32.676 29.4655 32.676 29.0803V23.5701C32.676 23.1849 33.0885 22.9475 33.4181 23.1348L38.2671 25.8899L38.2671 25.8899C38.4357 25.9857 38.5198 26.1514 38.5198 26.3252C38.5198 26.499 38.4357 26.6647 38.2671 26.7605Z" fill="#FD7B38" stroke="#FD7B38"/>
</svg>
