<svg width="21" height="22" viewBox="0 0 21 22" fill="none" xmlns="http://www.w3.org/2000/svg">
<mask id="path-1-outside-1_256_1206" maskUnits="userSpaceOnUse" x="-0.571777" y="0" width="22" height="22" fill="black">
<rect fill="white" x="-0.571777" width="22" height="22"/>
<path d="M19.1239 13.1739H17.496C17.3595 13.6196 17.1808 14.05 16.9639 14.46L18.1139 15.61C18.36 15.8561 18.4956 16.1839 18.4956 16.533C18.4956 16.8817 18.36 17.2096 18.1139 17.4557L16.8834 18.6861C16.3917 19.1778 15.5308 19.1791 15.0382 18.6861L13.8882 17.5361C13.4787 17.753 13.0478 17.9313 12.6021 18.0683V19.6957C12.6021 20.4148 12.0169 21 11.2978 21H9.55866C8.83953 21 8.25431 20.4148 8.25431 19.6957V18.0678C7.80866 17.9309 7.37822 17.7526 6.96822 17.5357L5.81779 18.6857C5.30909 19.1943 4.48127 19.1943 3.97257 18.6857L2.7417 17.4552C2.23344 16.9465 2.23344 16.1187 2.7417 15.61L3.8917 14.4596C3.67474 14.05 3.49648 13.6191 3.35953 13.1735H1.73257C1.01344 13.1735 0.428223 12.5883 0.428223 11.8691V10.13C0.428223 9.4113 1.01344 8.82609 1.73257 8.82609H3.3604C3.49735 8.38044 3.67561 7.95 3.89257 7.54L2.74257 6.38957C2.23387 5.88087 2.23387 5.05304 2.74257 4.54435L3.97301 3.31348C4.4817 2.80522 5.30953 2.80522 5.81822 3.31348L6.96866 4.46348C7.37822 4.24652 7.80909 4.06826 8.25474 3.93131V2.30435C8.25474 1.58522 8.83996 1 9.55909 1H11.2982C12.0174 1 12.6026 1.58522 12.6026 2.30435V3.93217C13.0482 4.06913 13.4791 4.24739 13.8887 4.46435L15.0387 3.31391C15.5317 2.8213 16.3926 2.82217 16.8839 3.31391L18.1143 4.54435C18.3604 4.79044 18.496 5.11826 18.496 5.46696C18.496 5.81609 18.3604 6.14348 18.1143 6.38957L16.9643 7.54C17.1813 7.94957 17.3595 8.38044 17.4965 8.82609H19.1239C19.843 8.82609 20.4282 9.4113 20.4282 10.1304V11.8696C20.4282 12.5887 19.843 13.1739 19.1239 13.1739ZM19.5587 10.1304C19.5587 9.89087 19.3639 9.69565 19.1239 9.69565H17.1674C16.9691 9.69565 16.796 9.5613 16.7465 9.36957C16.5926 8.77609 16.3582 8.20957 16.0491 7.68609C15.9487 7.51522 15.976 7.29783 16.116 7.15783L17.4987 5.77478C17.5804 5.69304 17.6256 5.58391 17.6256 5.46696C17.6256 5.35 17.5804 5.24087 17.4987 5.15913L16.2682 3.9287C16.1047 3.76522 15.8165 3.76522 15.6526 3.9287L14.27 5.31131C14.13 5.45174 13.9126 5.4787 13.7413 5.37826C13.2187 5.06957 12.6521 4.83478 12.0582 4.6813C11.8669 4.63217 11.7326 4.45913 11.7326 4.26087V2.30435C11.7326 2.06478 11.5378 1.86957 11.2978 1.86957H9.55866C9.31909 1.86957 9.12387 2.06478 9.12387 2.30435V4.26087C9.12387 4.45913 8.98953 4.63217 8.79779 4.68174C8.20431 4.83522 7.63779 5.06957 7.11431 5.3787C7.04561 5.41957 6.96953 5.43913 6.89344 5.43913C6.78083 5.43913 6.66953 5.39565 6.58561 5.31174L5.20301 3.92913C5.03301 3.75957 4.75735 3.75957 4.58735 3.92913L3.35692 5.15957C3.18692 5.32957 3.18692 5.60565 3.35692 5.77522L4.73953 7.15783C4.87996 7.29826 4.90735 7.51565 4.80648 7.68609C4.49779 8.20957 4.26301 8.77565 4.10953 9.36957C4.0604 9.5613 3.88735 9.69565 3.68909 9.69565H1.73257C1.49301 9.69565 1.29779 9.89087 1.29779 10.1304V11.8696C1.29779 12.1091 1.49301 12.3043 1.73257 12.3043H3.68909C3.88735 12.3043 4.0604 12.4387 4.10996 12.6304C4.26344 13.2239 4.49779 13.7904 4.80692 14.3139C4.90779 14.4848 4.8804 14.7022 4.73996 14.8422L3.35735 16.2248C3.18779 16.3943 3.18779 16.6704 3.35735 16.8404L4.58779 18.0709C4.75779 18.2409 5.03344 18.2404 5.20344 18.0709L6.58605 16.6883C6.72648 16.5478 6.94344 16.52 7.11431 16.6213C7.63779 16.93 8.20387 17.1648 8.79779 17.3183C8.98953 17.3678 9.12387 17.5409 9.12387 17.7391V19.6957C9.12387 19.9352 9.31909 20.1304 9.55866 20.1304H11.2978C11.5378 20.1304 11.7326 19.9352 11.7326 19.6957V17.7391C11.7326 17.5409 11.8669 17.3678 12.0587 17.3183C12.6526 17.1648 13.2191 16.93 13.7417 16.6213C13.913 16.5204 14.1304 16.5474 14.2704 16.6883L15.653 18.0709C15.8169 18.2352 16.1052 18.2348 16.2687 18.0709L17.4991 16.8404C17.5808 16.7587 17.626 16.6491 17.626 16.5326C17.626 16.4161 17.5808 16.3065 17.4991 16.2248L16.1165 14.8422C15.9765 14.7017 15.9487 14.4843 16.0495 14.3139C16.3587 13.7904 16.593 13.2243 16.7469 12.6304C16.796 12.4387 16.9691 12.3043 17.1674 12.3043H19.1239C19.3639 12.3043 19.5587 12.1091 19.5587 11.8696V10.1304V10.1304Z"/>
</mask>
<path d="M19.1239 13.1739H17.496C17.3595 13.6196 17.1808 14.05 16.9639 14.46L18.1139 15.61C18.36 15.8561 18.4956 16.1839 18.4956 16.533C18.4956 16.8817 18.36 17.2096 18.1139 17.4557L16.8834 18.6861C16.3917 19.1778 15.5308 19.1791 15.0382 18.6861L13.8882 17.5361C13.4787 17.753 13.0478 17.9313 12.6021 18.0683V19.6957C12.6021 20.4148 12.0169 21 11.2978 21H9.55866C8.83953 21 8.25431 20.4148 8.25431 19.6957V18.0678C7.80866 17.9309 7.37822 17.7526 6.96822 17.5357L5.81779 18.6857C5.30909 19.1943 4.48127 19.1943 3.97257 18.6857L2.7417 17.4552C2.23344 16.9465 2.23344 16.1187 2.7417 15.61L3.8917 14.4596C3.67474 14.05 3.49648 13.6191 3.35953 13.1735H1.73257C1.01344 13.1735 0.428223 12.5883 0.428223 11.8691V10.13C0.428223 9.4113 1.01344 8.82609 1.73257 8.82609H3.3604C3.49735 8.38044 3.67561 7.95 3.89257 7.54L2.74257 6.38957C2.23387 5.88087 2.23387 5.05304 2.74257 4.54435L3.97301 3.31348C4.4817 2.80522 5.30953 2.80522 5.81822 3.31348L6.96866 4.46348C7.37822 4.24652 7.80909 4.06826 8.25474 3.93131V2.30435C8.25474 1.58522 8.83996 1 9.55909 1H11.2982C12.0174 1 12.6026 1.58522 12.6026 2.30435V3.93217C13.0482 4.06913 13.4791 4.24739 13.8887 4.46435L15.0387 3.31391C15.5317 2.8213 16.3926 2.82217 16.8839 3.31391L18.1143 4.54435C18.3604 4.79044 18.496 5.11826 18.496 5.46696C18.496 5.81609 18.3604 6.14348 18.1143 6.38957L16.9643 7.54C17.1813 7.94957 17.3595 8.38044 17.4965 8.82609H19.1239C19.843 8.82609 20.4282 9.4113 20.4282 10.1304V11.8696C20.4282 12.5887 19.843 13.1739 19.1239 13.1739ZM19.5587 10.1304C19.5587 9.89087 19.3639 9.69565 19.1239 9.69565H17.1674C16.9691 9.69565 16.796 9.5613 16.7465 9.36957C16.5926 8.77609 16.3582 8.20957 16.0491 7.68609C15.9487 7.51522 15.976 7.29783 16.116 7.15783L17.4987 5.77478C17.5804 5.69304 17.6256 5.58391 17.6256 5.46696C17.6256 5.35 17.5804 5.24087 17.4987 5.15913L16.2682 3.9287C16.1047 3.76522 15.8165 3.76522 15.6526 3.9287L14.27 5.31131C14.13 5.45174 13.9126 5.4787 13.7413 5.37826C13.2187 5.06957 12.6521 4.83478 12.0582 4.6813C11.8669 4.63217 11.7326 4.45913 11.7326 4.26087V2.30435C11.7326 2.06478 11.5378 1.86957 11.2978 1.86957H9.55866C9.31909 1.86957 9.12387 2.06478 9.12387 2.30435V4.26087C9.12387 4.45913 8.98953 4.63217 8.79779 4.68174C8.20431 4.83522 7.63779 5.06957 7.11431 5.3787C7.04561 5.41957 6.96953 5.43913 6.89344 5.43913C6.78083 5.43913 6.66953 5.39565 6.58561 5.31174L5.20301 3.92913C5.03301 3.75957 4.75735 3.75957 4.58735 3.92913L3.35692 5.15957C3.18692 5.32957 3.18692 5.60565 3.35692 5.77522L4.73953 7.15783C4.87996 7.29826 4.90735 7.51565 4.80648 7.68609C4.49779 8.20957 4.26301 8.77565 4.10953 9.36957C4.0604 9.5613 3.88735 9.69565 3.68909 9.69565H1.73257C1.49301 9.69565 1.29779 9.89087 1.29779 10.1304V11.8696C1.29779 12.1091 1.49301 12.3043 1.73257 12.3043H3.68909C3.88735 12.3043 4.0604 12.4387 4.10996 12.6304C4.26344 13.2239 4.49779 13.7904 4.80692 14.3139C4.90779 14.4848 4.8804 14.7022 4.73996 14.8422L3.35735 16.2248C3.18779 16.3943 3.18779 16.6704 3.35735 16.8404L4.58779 18.0709C4.75779 18.2409 5.03344 18.2404 5.20344 18.0709L6.58605 16.6883C6.72648 16.5478 6.94344 16.52 7.11431 16.6213C7.63779 16.93 8.20387 17.1648 8.79779 17.3183C8.98953 17.3678 9.12387 17.5409 9.12387 17.7391V19.6957C9.12387 19.9352 9.31909 20.1304 9.55866 20.1304H11.2978C11.5378 20.1304 11.7326 19.9352 11.7326 19.6957V17.7391C11.7326 17.5409 11.8669 17.3678 12.0587 17.3183C12.6526 17.1648 13.2191 16.93 13.7417 16.6213C13.913 16.5204 14.1304 16.5474 14.2704 16.6883L15.653 18.0709C15.8169 18.2352 16.1052 18.2348 16.2687 18.0709L17.4991 16.8404C17.5808 16.7587 17.626 16.6491 17.626 16.5326C17.626 16.4161 17.5808 16.3065 17.4991 16.2248L16.1165 14.8422C15.9765 14.7017 15.9487 14.4843 16.0495 14.3139C16.3587 13.7904 16.593 13.2243 16.7469 12.6304C16.796 12.4387 16.9691 12.3043 17.1674 12.3043H19.1239C19.3639 12.3043 19.5587 12.1091 19.5587 11.8696V10.1304V10.1304Z" fill="white"/>
<path d="M19.1239 13.1739H17.496C17.3595 13.6196 17.1808 14.05 16.9639 14.46L18.1139 15.61C18.36 15.8561 18.4956 16.1839 18.4956 16.533C18.4956 16.8817 18.36 17.2096 18.1139 17.4557L16.8834 18.6861C16.3917 19.1778 15.5308 19.1791 15.0382 18.6861L13.8882 17.5361C13.4787 17.753 13.0478 17.9313 12.6021 18.0683V19.6957C12.6021 20.4148 12.0169 21 11.2978 21H9.55866C8.83953 21 8.25431 20.4148 8.25431 19.6957V18.0678C7.80866 17.9309 7.37822 17.7526 6.96822 17.5357L5.81779 18.6857C5.30909 19.1943 4.48127 19.1943 3.97257 18.6857L2.7417 17.4552C2.23344 16.9465 2.23344 16.1187 2.7417 15.61L3.8917 14.4596C3.67474 14.05 3.49648 13.6191 3.35953 13.1735H1.73257C1.01344 13.1735 0.428223 12.5883 0.428223 11.8691V10.13C0.428223 9.4113 1.01344 8.82609 1.73257 8.82609H3.3604C3.49735 8.38044 3.67561 7.95 3.89257 7.54L2.74257 6.38957C2.23387 5.88087 2.23387 5.05304 2.74257 4.54435L3.97301 3.31348C4.4817 2.80522 5.30953 2.80522 5.81822 3.31348L6.96866 4.46348C7.37822 4.24652 7.80909 4.06826 8.25474 3.93131V2.30435C8.25474 1.58522 8.83996 1 9.55909 1H11.2982C12.0174 1 12.6026 1.58522 12.6026 2.30435V3.93217C13.0482 4.06913 13.4791 4.24739 13.8887 4.46435L15.0387 3.31391C15.5317 2.8213 16.3926 2.82217 16.8839 3.31391L18.1143 4.54435C18.3604 4.79044 18.496 5.11826 18.496 5.46696C18.496 5.81609 18.3604 6.14348 18.1143 6.38957L16.9643 7.54C17.1813 7.94957 17.3595 8.38044 17.4965 8.82609H19.1239C19.843 8.82609 20.4282 9.4113 20.4282 10.1304V11.8696C20.4282 12.5887 19.843 13.1739 19.1239 13.1739ZM19.5587 10.1304C19.5587 9.89087 19.3639 9.69565 19.1239 9.69565H17.1674C16.9691 9.69565 16.796 9.5613 16.7465 9.36957C16.5926 8.77609 16.3582 8.20957 16.0491 7.68609C15.9487 7.51522 15.976 7.29783 16.116 7.15783L17.4987 5.77478C17.5804 5.69304 17.6256 5.58391 17.6256 5.46696C17.6256 5.35 17.5804 5.24087 17.4987 5.15913L16.2682 3.9287C16.1047 3.76522 15.8165 3.76522 15.6526 3.9287L14.27 5.31131C14.13 5.45174 13.9126 5.4787 13.7413 5.37826C13.2187 5.06957 12.6521 4.83478 12.0582 4.6813C11.8669 4.63217 11.7326 4.45913 11.7326 4.26087V2.30435C11.7326 2.06478 11.5378 1.86957 11.2978 1.86957H9.55866C9.31909 1.86957 9.12387 2.06478 9.12387 2.30435V4.26087C9.12387 4.45913 8.98953 4.63217 8.79779 4.68174C8.20431 4.83522 7.63779 5.06957 7.11431 5.3787C7.04561 5.41957 6.96953 5.43913 6.89344 5.43913C6.78083 5.43913 6.66953 5.39565 6.58561 5.31174L5.20301 3.92913C5.03301 3.75957 4.75735 3.75957 4.58735 3.92913L3.35692 5.15957C3.18692 5.32957 3.18692 5.60565 3.35692 5.77522L4.73953 7.15783C4.87996 7.29826 4.90735 7.51565 4.80648 7.68609C4.49779 8.20957 4.26301 8.77565 4.10953 9.36957C4.0604 9.5613 3.88735 9.69565 3.68909 9.69565H1.73257C1.49301 9.69565 1.29779 9.89087 1.29779 10.1304V11.8696C1.29779 12.1091 1.49301 12.3043 1.73257 12.3043H3.68909C3.88735 12.3043 4.0604 12.4387 4.10996 12.6304C4.26344 13.2239 4.49779 13.7904 4.80692 14.3139C4.90779 14.4848 4.8804 14.7022 4.73996 14.8422L3.35735 16.2248C3.18779 16.3943 3.18779 16.6704 3.35735 16.8404L4.58779 18.0709C4.75779 18.2409 5.03344 18.2404 5.20344 18.0709L6.58605 16.6883C6.72648 16.5478 6.94344 16.52 7.11431 16.6213C7.63779 16.93 8.20387 17.1648 8.79779 17.3183C8.98953 17.3678 9.12387 17.5409 9.12387 17.7391V19.6957C9.12387 19.9352 9.31909 20.1304 9.55866 20.1304H11.2978C11.5378 20.1304 11.7326 19.9352 11.7326 19.6957V17.7391C11.7326 17.5409 11.8669 17.3678 12.0587 17.3183C12.6526 17.1648 13.2191 16.93 13.7417 16.6213C13.913 16.5204 14.1304 16.5474 14.2704 16.6883L15.653 18.0709C15.8169 18.2352 16.1052 18.2348 16.2687 18.0709L17.4991 16.8404C17.5808 16.7587 17.626 16.6491 17.626 16.5326C17.626 16.4161 17.5808 16.3065 17.4991 16.2248L16.1165 14.8422C15.9765 14.7017 15.9487 14.4843 16.0495 14.3139C16.3587 13.7904 16.593 13.2243 16.7469 12.6304C16.796 12.4387 16.9691 12.3043 17.1674 12.3043H19.1239C19.3639 12.3043 19.5587 12.1091 19.5587 11.8696V10.1304V10.1304Z" stroke="white" stroke-width="0.6" mask="url(#path-1-outside-1_256_1206)"/>
<path d="M10.4282 15.0631C8.18795 15.0631 6.36514 13.2403 6.36514 11C6.36514 8.75981 8.18795 6.937 10.4282 6.937C12.6689 6.937 14.4912 8.75982 14.4912 11C14.4912 13.2403 12.6689 15.0631 10.4282 15.0631ZM10.4282 8.10657C8.83276 8.10657 7.5347 9.40463 7.5347 11C7.5347 12.5955 8.83276 13.8935 10.4282 13.8935C12.0232 13.8935 13.3217 12.5954 13.3217 11C13.3217 9.40464 12.0232 8.10657 10.4282 8.10657Z" fill="white" stroke="white" stroke-width="0.3"/>
</svg>
