<svg width="18" height="21" viewBox="0 0 18 21" fill="none" xmlns="http://www.w3.org/2000/svg">
<path d="M3.08236 11.282H9.94007C11.3151 11.282 12.4321 12.4 12.4321 13.782V17.205C12.4321 18.5869 11.3151 19.705 9.94007 19.705H3.08236C1.7073 19.705 0.590332 18.5869 0.590332 17.205V13.782C0.590332 12.4 1.7073 11.282 3.08236 11.282Z" stroke="white"/>
<path d="M9.9401 11.532H3.08239C1.84306 11.532 0.838379 12.5393 0.838379 13.782V17.205C0.838379 18.4476 1.84306 19.455 3.08239 19.455H9.9401C11.1794 19.455 12.1841 18.4476 12.1841 17.205V13.782C12.1841 12.5393 11.1794 11.532 9.9401 11.532Z" stroke="white" stroke-width="1.5"/>
<path d="M14.7573 14.8419V16.6029L17.0642 18.896V11.9829L14.7573 14.8419Z" stroke="white" stroke-width="1.5" stroke-linejoin="round"/>
<path d="M3.08236 0.5H9.94007C11.3151 0.5 12.4321 1.61803 12.4321 3V6.423C12.4321 7.80497 11.3151 8.923 9.94007 8.923H3.08236C1.7073 8.923 0.590332 7.80497 0.590332 6.423V3C0.590332 1.61803 1.7073 0.5 3.08236 0.5Z" stroke="white"/>
<path d="M9.9401 0.75H3.08239C1.84306 0.75 0.838379 1.75736 0.838379 3V6.423C0.838379 7.66564 1.84306 8.673 3.08239 8.673H9.9401C11.1794 8.673 12.1841 7.66564 12.1841 6.423V3C12.1841 1.75736 11.1794 0.75 9.9401 0.75Z" stroke="white" stroke-width="1.5"/>
<path d="M14.7573 4.05994V5.82092L17.0642 8.11401V1.20093L14.7573 4.05994Z" stroke="white" stroke-width="1.5" stroke-linejoin="round"/>
</svg>
