<svg width="52" height="52" viewBox="0 0 52 52" fill="none" xmlns="http://www.w3.org/2000/svg">
<path d="M25.9308 0C31.0595 0 36.0729 1.52487 40.3373 4.38179C44.6016 7.23871 47.9252 11.2993 49.8878 16.0502C51.8505 20.8011 52.364 26.0288 51.3634 31.0723C50.3629 36.1158 47.8932 40.7486 44.2667 44.3848C40.6402 48.0209 36.0198 50.4972 30.9897 51.5004C25.9596 52.5036 20.7458 51.9887 16.0075 50.0209C11.2693 48.053 7.21945 44.7205 4.37014 40.4448C1.52082 36.1691 0 31.1423 0 26C0 19.1044 2.73199 12.4912 7.59497 7.61522C12.4579 2.73928 19.0536 0 25.9308 0V0Z" fill="#404447"/>
<path fill-rule="evenodd" clip-rule="evenodd" d="M27.1284 16L26.9503 16.0068C26.3678 16.0601 25.651 16.3948 25.1707 16.8016L21.2035 20.0345L19.1102 20.0351C17.5472 20.0351 16.3897 21.2039 16.1682 22.7872C15.9473 24.559 15.9406 27.5131 16.1682 29.1398L16.1987 29.3489C16.4687 30.9289 17.5683 31.9648 19.1102 31.9648L21.2046 31.9642L25.2733 35.2695C25.7897 35.7038 26.532 36.0139 27.1416 35.9989C28.3392 36.0351 29.4222 35.1569 29.8147 33.8463C29.9057 33.5081 29.9612 33.2134 30.0099 32.8302L30.133 31.6942C30.3313 30.11 30.3373 22.4256 30.1507 20.4694L30.0581 19.6255C29.9884 18.9815 29.9287 18.5859 29.8229 18.1815C29.443 16.9129 28.4509 16.0574 27.2904 16.0017L27.1284 16ZM27.102 17.7138L27.1455 17.7136C27.5707 17.7012 27.992 18.043 28.1724 18.6446L28.2218 18.8614C28.2528 19.017 28.2807 19.1985 28.3094 19.4277L28.4312 20.5135C28.6186 22.011 28.6186 29.989 28.4315 31.4839L28.399 31.7715L28.361 32.148C28.3028 32.7269 28.2558 33.0418 28.1656 33.3784C27.9921 33.9565 27.5713 34.2976 27.1455 34.2852C26.9483 34.2888 26.5951 34.1412 26.3652 33.948L22.0489 30.4423C21.8962 30.3182 21.7053 30.2505 21.5085 30.2505H19.1101C18.4159 30.2505 17.9763 29.8106 17.868 28.9178C17.66 27.4306 17.6664 24.6268 17.8677 23.0119C17.9758 22.2397 18.4613 21.7495 19.1101 21.7495H21.5085C21.7059 21.7495 21.8972 21.6814 22.0501 21.5568L26.2663 18.1201C26.519 17.9062 26.9636 17.7108 27.102 17.7138ZM34.3806 19.3084C34.1103 18.9197 33.5761 18.8237 33.1874 19.0939C32.7987 19.3641 32.7027 19.8983 32.973 20.287C33.9976 21.7608 34.5779 23.7243 34.5779 25.8581C34.5779 27.9917 33.9977 29.954 32.973 31.428C32.7027 31.8167 32.7987 32.3509 33.1874 32.6211C33.5761 32.8914 34.1103 32.7953 34.3806 32.4066C35.6109 30.637 36.2923 28.3323 36.2923 25.8581C36.2923 23.3837 35.6108 21.0778 34.3806 19.3084Z" fill="white"/>
</svg>
